<svg width="55" height="30" viewBox="69.131 62.768 54.354 29.299" xmlns="http://www.w3.org/2000/svg"><path fill="#000000" d="m 113.60308,91.90149 c 1.58997,-0.439667 3.0785,-1.683793 3.80839,-3.183086 0.227,-0.466286 0.4388,-0.950289 0.47066,-1.075563 0.0505,-0.198456 0.16567,-0.236804 0.89502,-0.297969 1.45986,-0.122429 2.34618,-0.519475 3.26306,-1.461763 0.61523,-0.632278 1.20374,-1.816536 1.34411,-2.70475 0.14231,-0.900477 0.13158,-4.389756 -0.0157,-5.097159 -0.25654,-1.232448 -1.15214,-2.576868 -2.14653,-3.222252 -0.58968,-0.382717 -1.08379,-0.542724 -5.52014,-1.787546 -2.16895,-0.608602 -4.00384,-1.156284 -4.07752,-1.217071 -0.0737,-0.06079 -1.25279,-1.614317 -2.62023,-3.452287 -1.36745,-1.83797 -2.60464,-3.469922 -2.74933,-3.626559 -0.79913,-0.865144 -1.82544,-1.494897 -2.96432,-1.818935 -0.60294,-0.171551 -1.46995,-0.188316 -9.738502,-0.188316 -10.093641,0 -9.666405,-0.02873 -11.093077,0.745918 -1.198611,0.650816 -1.845406,1.458078 -3.96316,4.946405 -1.062477,1.750093 -2.014814,3.283052 -2.116306,3.406575 -0.101491,0.123524 -1.020535,0.612371 -2.04232,1.086326 -2.736979,1.26955 -3.16424,1.511791 -3.759188,2.131309 -0.633421,0.65958 -1.053292,1.418273 -1.279893,2.31272 -0.190227,0.750871 -0.229795,4.693877 -0.05801,5.780872 0.213672,1.352048 1.18536,2.825 2.311051,3.503251 0.691468,0.416624 1.447713,0.611685 2.660196,0.686153 l 1.09499,0.06725 0.274601,0.709443 c 0.709365,1.832667 2.284524,3.270114 4.122858,3.762405 0.801204,0.214556 2.375028,0.213872 3.178837,-0.0014 1.576508,-0.422177 3.132339,-1.715514 3.858801,-3.20776 0.221462,-0.454912 0.430711,-0.9374 0.464996,-1.072196 l 0.06234,-0.245084 h 9.36191 9.361906 l 0.0623,0.245084 c 0.0343,0.134796 0.24452,0.619307 0.46719,1.076691 0.73807,1.516095 2.25405,2.77411 3.86177,3.204646 0.78035,0.208972 2.45414,0.206178 3.21917,-0.0054 z m -3.30091,-2.480873 c -1.96137,-0.990245 -2.78343,-3.312792 -1.89962,-5.366983 0.31867,-0.740659 1.17867,-1.613116 1.95219,-1.98046 0.57267,-0.271961 0.7877,-0.313701 1.616,-0.313701 0.82424,0 1.04443,0.04228 1.6035,0.307931 3.16598,1.504348 3.06747,6.06972 -0.16105,7.463331 -0.49993,0.215799 -0.74336,0.251354 -1.54861,0.226187 -0.79565,-0.02487 -1.05694,-0.08111 -1.56241,-0.336305 z m -30.656984,0.02295 c -1.576524,-0.758947 -2.541797,-2.612843 -2.238557,-4.299353 0.253631,-1.410605 1.012074,-2.442436 2.238557,-3.045467 0.614062,-0.301919 0.795232,-0.339274 1.645472,-0.339274 0.828307,0 1.043328,0.04174 1.615999,0.313701 1.614221,0.766592 2.560049,2.605369 2.249688,4.373602 -0.252788,1.44022 -1.093271,2.509871 -2.423237,3.083959 -0.837275,0.361416 -2.238251,0.321868 -3.087922,-0.08717 z m 38.386674,-4.819036 c -0.26976,-1.782765 -1.62829,-3.649086 -3.25914,-4.477321 -0.84331,-0.428279 -2.03268,-0.73552 -2.83546,-0.73246 -2.78712,0.01062 -5.43239,2.219082 -5.97874,4.991491 l -0.13443,0.682156 h -9.205299 -9.205302 l -0.07509,-0.463866 c -0.337977,-2.087849 -1.921924,-4.030019 -3.883925,-4.762308 -1.747691,-0.652302 -3.309321,-0.56574 -4.972124,0.275608 -1.556883,0.787753 -2.907782,2.58826 -3.223516,4.296369 l -0.120924,0.654197 -0.851526,-0.0011 c -1.410594,-0.0018 -2.35991,-0.634926 -2.759435,-1.840444 -0.193251,-0.583112 -0.232529,-4.715324 -0.0512,-5.386593 0.141279,-0.523009 0.697206,-1.271016 1.144038,-1.539319 0.192265,-0.115447 1.45214,-0.731721 2.799723,-1.369497 l 2.45015,-1.159594 2.153846,-3.547214 c 1.184614,-1.950968 2.34875,-3.758676 2.586968,-4.01713 0.246841,-0.26781 0.741033,-0.619875 1.149045,-0.818588 l 0.715922,-0.348672 h 9.076635 9.076634 l 0.69004,0.336871 c 0.37952,0.185279 0.84163,0.468887 1.02691,0.63024 0.18528,0.161353 1.52975,1.900699 2.98771,3.865213 1.45796,1.964515 2.76689,3.682743 2.90873,3.818286 0.19436,0.185737 1.35426,0.554827 4.70885,1.498394 2.44802,0.688574 4.63178,1.334921 4.85279,1.436328 0.51852,0.237919 1.0592,0.857456 1.28958,1.477683 0.15569,0.41911 0.17713,0.821645 0.14771,2.772677 -0.0315,2.092371 -0.0535,2.318733 -0.26355,2.718967 -0.47156,0.898482 -1.37241,1.466832 -2.33166,1.471061 l -0.54377,0.0024 z"/></svg>
