<svg width="55" height="38" viewBox="116.970 20.478 55.002 38.007" xmlns="http://www.w3.org/2000/svg"><path fill="#000000" d="m 128.62867,58.357959 c -1.93598,-0.424961 -3.53004,-1.608542 -4.38068,-3.252633 l -0.34726,-0.671185 -1.41419,-3.97e-4 c -1.08528,-3.05e-4 -1.5663,-0.04774 -2.06827,-0.203974 -1.68378,-0.524051 -2.96814,-1.92983 -3.32851,-3.643162 -0.0841,-0.400006 -0.11976,-4.317499 -0.11976,-13.167295 0,-13.705663 -0.0232,-13.150208 0.60096,-14.381961 0.35896,-0.70837 1.24986,-1.599268 1.95823,-1.958227 1.24181,-0.629271 0.45055,-0.600966 16.79967,-0.600966 10.62729,0 15.18198,0.035 15.58499,0.119766 1.46179,0.30746 2.72747,1.300236 3.39282,2.661278 l 0.40019,0.818636 0.0291,11.95416 0.0291,11.95416 h 7.4318 c 7.28446,0 7.44086,0.0044 7.88908,0.221365 0.332,0.160718 0.51792,0.346645 0.67864,0.678644 0.28338,0.585385 0.27752,0.983764 -0.0222,1.5065 -0.39755,0.693428 -0.76292,0.817084 -2.41425,0.817084 h -1.42543 v 1.479401 c 0,1.396629 -0.0149,1.501277 -0.26571,1.870425 -0.33003,0.485676 -1.05028,0.792646 -1.61238,0.687195 -0.50981,-0.09564 -1.09911,-0.629066 -1.23484,-1.117763 -0.0602,-0.21676 -0.10974,-0.962268 -0.11007,-1.656683 l -5.9e-4,-1.262575 h -4.56522 -4.56521 l -0.32181,0.63751 c -0.44596,0.883449 -1.22826,1.629539 -2.22582,2.122803 l -0.82827,0.409555 -3.25391,0.03393 -3.2539,0.03394 -0.35176,0.664509 c -0.43187,0.815855 -1.65054,2.069432 -2.44709,2.517183 -2.43079,1.366375 -5.49075,1.063974 -7.46175,-0.737408 l -0.59449,-0.543334 -0.5655,0.498491 c -1.49332,1.316373 -3.74389,1.921926 -5.6158,1.511027 z m 2.60892,-3.387405 c 1.05938,-0.455733 1.85097,-1.620475 1.88574,-2.774678 0.0398,-1.321723 -0.58724,-2.402315 -1.74044,-2.999293 -0.58255,-0.301564 -0.78704,-0.350799 -1.45701,-0.350799 -1.8419,0 -3.21906,1.356109 -3.21906,3.169867 0,2.373305 2.33809,3.898169 4.53077,2.954903 z m 9.78096,-0.0158 c 0.63217,-0.306032 1.20726,-0.887453 1.53359,-1.550492 0.38426,-0.780749 0.3699,-2.031125 -0.0321,-2.798752 -0.35854,-0.68457 -1.1207,-1.367795 -1.77423,-1.590473 -0.75361,-0.256781 -1.79692,-0.219363 -2.4573,0.08813 -1.124,0.523373 -1.76449,1.463603 -1.84589,2.709737 -0.056,0.857552 0.0517,1.283612 0.50531,1.998899 0.8419,1.327539 2.64407,1.833549 4.07066,1.14295 z m -17.39366,-4.362853 c 0.25392,-1.166855 0.81403,-2.146569 1.76878,-3.093885 1.33791,-1.327481 2.6605,-1.875822 4.52444,-1.875822 1.67714,0 3.11808,0.534058 4.23992,1.571449 l 0.59547,0.550643 0.57769,-0.517595 c 0.69229,-0.620278 1.78763,-1.215251 2.65152,-1.440266 1.01257,-0.26374 2.5553,-0.217315 3.5847,0.107872 1.58483,0.500646 3.02648,1.69726 3.73911,3.103576 0.35008,0.690834 0.67583,1.635609 0.67583,1.960073 v 0.25181 l 2.71319,-4.01e-4 c 2.5178,-3.73e-4 2.73841,-0.01578 3.0634,-0.213924 0.19261,-0.117438 0.44629,-0.371115 0.56373,-0.563728 0.20358,-0.33391 0.21354,-0.548943 0.21392,-4.621466 l 4e-4,-4.271262 H 136.3653 120.19359 l 0.002,4.217536 c 0.002,4.166357 0.005,4.222614 0.24177,4.636161 0.36886,0.643384 0.79851,0.817084 2.02107,0.817084 h 1.03224 z m 28.9117,-19.019203 c -3.9e-4,-6.503836 -0.008,-6.7549 -0.21069,-7.087571 -0.11566,-0.189689 -0.40466,-0.444047 -0.64222,-0.565241 -0.43016,-0.219455 -0.49293,-0.220239 -15.41587,-0.192377 -14.94443,0.0279 -14.98474,0.02856 -15.28068,0.24952 -0.1632,0.12185 -0.39642,0.355048 -0.51827,0.518217 -0.2175,0.291265 -0.22207,0.419886 -0.25075,7.058403 l -0.0292,6.761733 h 16.17406 16.17404 z"/></svg>
