<svg width="54" height="31" viewBox="44.306 155.946 54.275 30.764" xmlns="http://www.w3.org/2000/svg"><path fill="#000000" d="m 53.316007,186.45037 c -1.686683,-0.57483 -3.004812,-1.96584 -3.404815,-3.59308 -0.07242,-0.29461 -0.07326,-0.2948 -1.533383,-0.35402 -1.239921,-0.0503 -1.552539,-0.10175 -2.066544,-0.3402 -0.726737,-0.33713 -1.358006,-0.95046 -1.706756,-1.65824 L 44.3481,179.98445 44.31753,169.40899 C 44.28967,159.771 44.3038,158.78 44.476841,158.22985 c 0.243935,-0.77553 1.03416,-1.6656 1.792149,-2.01857 l 0.567938,-0.26447 22.286359,-4.7e-4 c 15.006873,-3.2e-4 22.423996,0.0378 22.707736,0.11655 0.54249,0.15066 1.297009,0.72818 1.699435,1.30076 0.316748,0.45068 4.695249,12.84119 4.955389,14.02302 0.0818,0.37174 0.11189,1.94238 0.0877,4.58171 -0.0358,3.90727 -0.0438,4.03017 -0.29321,4.53645 -0.35105,0.71245 -0.98115,1.32165 -1.72266,1.66552 -0.56519,0.26211 -0.78735,0.29277 -2.450669,0.33829 l -1.829135,0.05 -0.07571,0.40357 c -0.187903,1.00161 -1.277244,2.44619 -2.293946,3.04202 -2.78242,1.6306 -6.488815,0.27642 -7.491681,-2.73719 L 82.171199,182.5298 H 71.049847 59.92848 l -0.07018,0.36767 c -0.202595,1.06132 -1.136689,2.33259 -2.228913,3.03347 -1.25285,0.80395 -2.897338,1.00197 -4.313377,0.51938 z m 3.036914,-1.86005 c 0.746746,-0.38419 1.138027,-0.77805 1.507497,-1.51743 1.168978,-2.33933 -0.618898,-5.02248 -3.208159,-4.81464 -1.208205,0.097 -2.211005,0.78127 -2.748282,1.87535 -0.418876,0.85298 -0.434846,1.93954 -0.0415,2.82381 0.314417,0.70684 1.158022,1.51304 1.84981,1.76778 0.676124,0.24898 2.02885,0.17988 2.640638,-0.13487 z m 32.524255,-0.10058 c 1.574199,-0.8833 2.149727,-2.77391 1.343159,-4.41228 -1.217616,-2.47333 -4.735655,-2.4402 -5.961541,0.0561 -0.653025,1.32979 -0.311002,2.9647 0.830398,3.9694 0.706175,0.6216 1.265613,0.8059 2.317311,0.76342 0.709368,-0.0287 0.968914,-0.0951 1.470673,-0.37668 z M 49.997272,180.0693 c 0.278727,-0.88987 0.63101,-1.46077 1.33418,-2.16212 0.906813,-0.90448 2.259099,-1.47704 3.503769,-1.48351 2.242629,-0.0117 4.302109,1.48069 4.954857,3.59042 l 0.200842,0.64914 11.081298,0.0288 11.081297,0.0288 0.142116,-0.48134 c 0.261259,-0.8849 0.822433,-1.77826 1.536796,-2.44651 2.705807,-2.53115 7.21253,-1.32705 8.312951,2.22105 l 0.201327,0.64914 h 1.680919 c 1.592873,0 1.700843,-0.0142 2.061383,-0.27136 0.667,-0.47571 0.69426,-0.6515 0.69426,-4.47642 v -3.45406 h -5.58734 c -5.332096,0 -5.59954,-0.01 -5.854412,-0.21619 l -0.267073,-0.2162 -0.0335,-5.46852 c -0.01842,-3.00769 -0.0034,-5.63418 0.03349,-5.83664 0.03684,-0.20246 0.17606,-0.46973 0.309369,-0.59392 0.231346,-0.21554 0.401051,-0.22581 3.728038,-0.22581 1.917112,0 3.485659,-0.0337 3.485659,-0.0749 0,-0.0412 -0.08783,-0.35354 -0.195183,-0.69409 -0.241926,-0.76748 -0.643123,-1.21017 -1.243168,-1.37175 -0.32877,-0.0885 -6.684444,-0.11568 -22.165323,-0.0947 -21.593403,0.0293 -21.706407,0.0306 -22.100333,0.25953 -0.486852,0.28293 -0.791492,0.85822 -0.791725,1.49511 l -1.76e-4,0.4808 h 3.497738 c 1.923756,0 3.580147,0.0316 3.680868,0.0703 0.496437,0.1905 0.514148,0.40753 0.514148,6.30062 0,5.48419 -0.0044,5.59589 -0.234469,5.88832 l -0.234468,0.29807 H 49.713499 46.10159 v 3.45406 c 0,3.77141 0.03378,4.00635 0.637691,4.43493 0.438572,0.31124 0.599208,0.34112 1.915328,0.35629 l 1.13891,0.0131 z m 6.059651,-7.83416 c -0.220391,-0.22039 -0.226257,-0.3771 -0.226257,-6.04418 v -5.81792 l 0.298078,-0.23447 c 0.292604,-0.23016 0.402807,-0.23446 6.000965,-0.23446 h 5.702887 l 0.277679,0.27767 0.27768,0.27768 v 5.75499 5.75499 l -0.261831,0.24598 c -0.261788,0.24593 -0.262788,0.24597 -6.052387,0.24597 -5.639718,0 -5.79645,-0.006 -6.016814,-0.22625 z m 10.520972,-5.99583 v -4.52515 h -4.525149 -4.525149 v 4.44973 c 0,2.44736 0.03394,4.48367 0.07542,4.52515 0.04148,0.0415 2.077798,0.0754 4.525149,0.0754 h 4.44973 z m 4.080845,5.92401 c -0.230162,-0.29261 -0.234468,-0.40281 -0.234468,-6.00097 v -5.70289 l 0.277679,-0.27768 0.27768,-0.27767 h 5.754988 5.754987 l 0.27426,0.29185 0.274259,0.29185 0.03351,5.39287 c 0.01843,2.96607 0.0029,5.56115 -0.03459,5.76684 -0.03746,0.20569 -0.167081,0.47296 -0.288053,0.59393 -0.212141,0.21214 -0.426421,0.21994 -6.037866,0.21994 h -5.817918 z m 10.598906,-5.95229 0.02958,-4.49687 h -4.526447 -4.526447 v 4.52645 4.52645 l 4.496867,-0.0296 4.496867,-0.0296 z m -29.300341,0 0.02958,-4.49687 H 49.04424 46.101595 v 4.52706 4.52706 l 2.913065,-0.0302 2.913065,-0.0302 z m 44.373442,4.40323 c 0,-0.0826 -0.68003,-2.1062 -1.511187,-4.49686 l -1.511191,-4.34667 -3.240216,-0.03 -3.240215,-0.03 v 4.45146 c 0,2.44831 0.03394,4.4854 0.07542,4.52688 0.04148,0.0415 2.179613,0.0754 4.751406,0.0754 3.811313,0 4.675983,-0.0278 4.675983,-0.1502 z"/></svg>
