<svg width="64" height="40" viewBox="116.346 86.973 63.009 39.864" xmlns="http://www.w3.org/2000/svg"><path fill="#000000" d="m 125.11583,126.75116 c -5.28852,-0.95492 -9.05082,-5.63882 -8.75297,-10.89706 0.24691,-4.35877 3.05325,-8.03376 7.19671,-9.42433 1.04515,-0.35075 1.41015,-0.41041 2.82852,-0.46229 1.39076,-0.0509 1.8029,-0.0193 2.82287,0.21641 4.33508,1.00175 7.59271,4.70973 8.0343,9.14499 0.50638,5.08598 -2.69723,9.77408 -7.64194,11.18308 -1.03188,0.29403 -3.46541,0.42375 -4.48749,0.2392 z m 3.22352,-2.10148 c 2.35414,-0.42982 4.63094,-2.05213 5.79081,-4.12617 2.37016,-4.23824 0.7511,-9.49584 -3.58212,-11.6323 -1.31194,-0.64683 -2.2226,-0.86313 -3.64942,-0.86679 -3.38321,-0.009 -6.14362,1.7128 -7.61784,4.7507 -1.56422,3.22336 -0.94724,6.89824 1.59294,9.48807 1.94191,1.97987 4.75958,2.88057 7.46563,2.38649 z m -2.54163,-4.21507 c -0.76443,-0.21603 -1.60221,-0.72418 -2.06735,-1.25394 -1.85006,-2.1071 -1.18443,-5.38122 1.3371,-6.57696 0.57404,-0.27222 0.84646,-0.32122 1.7858,-0.32122 0.98445,0 1.18902,0.0408 1.82887,0.36504 1.7874,0.90565 2.67137,2.90775 2.16657,4.90704 -0.28774,1.13965 -1.57321,2.47951 -2.6799,2.7933 -0.76469,0.21682 -1.77943,0.25394 -2.37109,0.0867 z m 2.20857,-2.33779 c 0.58344,-0.3861 0.8791,-0.98519 0.8791,-1.78128 0,-1.08527 -0.76208,-1.88015 -1.89242,-1.97389 -2.32899,-0.19313 -3.13479,2.94056 -1.01149,3.9336 0.64571,0.30199 1.39918,0.23559 2.02481,-0.17843 z m 39.55098,8.66601 c -3.47485,-0.50105 -6.50077,-2.66026 -8.00494,-5.71209 -0.73188,-1.48493 -0.99462,-2.5069 -1.07384,-4.17688 -0.0749,-1.5788 0.0384,-2.4211 0.52731,-3.91942 0.68439,-2.09746 2.27663,-4.10948 4.34119,-5.48569 0.035,-0.0233 -0.81081,-1.77378 -0.90958,-1.88248 -0.0913,-0.10049 -1.65893,1.12291 -2.47781,1.93371 -0.91569,0.90665 -2.03825,2.49291 -2.49875,3.53092 -0.81452,1.83599 -1.09494,3.11394 -1.18766,5.41244 -0.0603,1.49618 -0.11103,1.81807 -0.3739,2.37484 -0.16724,0.35424 -0.50839,0.81337 -0.7581,1.0203 -0.88576,0.73398 -1.06102,0.74943 -8.06564,0.71073 -6.18598,-0.0342 -6.35803,-0.0416 -6.69669,-0.2886 -0.19117,-0.13945 -0.47229,-0.49757 -0.6247,-0.79584 -0.24532,-0.48012 -0.27719,-0.72648 -0.27783,-2.14807 -9.1e-4,-2.00208 -0.23942,-3.62208 -0.74347,-5.04972 -1.92636,-5.45613 -7.10033,-8.86476 -12.80328,-8.43485 -2.46611,0.1859 -4.15068,0.77206 -6.35566,2.21148 -1.03207,0.67375 -1.12928,0.69951 -1.64086,0.43497 -0.58159,-0.30075 -0.69015,-1.07245 -0.22433,-1.59461 0.35124,-0.39372 2.27176,-1.59194 2.99316,-1.86744 0.55298,-0.21119 0.72271,-0.42201 0.33975,-0.42201 -0.34494,0 -0.99386,-0.52028 -1.27679,-1.02367 -0.21781,-0.38755 -0.25757,-0.6231 -0.21863,-1.29529 0.0845,-1.45939 0.93598,-2.73336 2.28294,-3.41585 l 0.71355,-0.36155 9.26716,-0.0338 9.26715,-0.0338 0.32582,-0.64358 c 0.46561,-0.91969 1.89458,-2.29899 2.88299,-2.78277 1.49294,-0.73072 1.68813,-0.75197 6.92211,-0.75357 2.62482,-8.1e-4 4.77291,-0.043 4.77353,-0.0938 6.2e-4,-0.0508 -0.31385,-0.76864 -0.69882,-1.59518 l -0.69995,-1.50281 -3.06838,-0.0367 -3.06838,-0.0367 -0.29704,-0.34555 c -0.39743,-0.46234 -0.37731,-0.8863 0.063,-1.32656 l 0.36,-0.36001 h 3.46602 c 2.23691,0 3.55377,0.047 3.71347,0.13243 0.14781,0.0791 0.68958,1.05187 1.34551,2.41592 l 1.09807,2.28349 0.74133,-0.68635 c 1.33432,-1.23534 3.41667,-2.04455 5.27441,-2.04965 0.69845,-0.002 0.81653,0.0352 1.13922,0.35787 l 0.36,0.36 v 4.45129 c 0,4.5434 -0.0228,4.78683 -0.48196,5.13934 -0.27049,0.20768 -1.4229,0.1942 -2.48416,-0.029 -0.48868,-0.1028 -0.90824,-0.16718 -0.93235,-0.14308 -0.0354,0.0354 1.5099,3.38307 1.61839,3.50584 0.0172,0.0194 0.31425,-0.0763 0.66019,-0.21262 2.53436,-0.99895 6.68851,-1.00963 9.50218,-0.0244 1.08069,0.3784 2.26316,0.94611 2.4569,1.17958 0.30487,0.36739 0.22573,1.04566 -0.16082,1.37815 -0.18667,0.16057 -0.44601,0.29194 -0.57631,0.29194 -0.1303,0 -0.78496,-0.22096 -1.45479,-0.49102 -0.66984,-0.27007 -1.55518,-0.57744 -1.96743,-0.68305 -1.71235,-0.43868 -4.20509,-0.43524 -5.97463,0.008 -0.65179,0.16335 -1.4117,0.4085 -1.53529,0.49528 -0.0203,0.0143 0.1659,0.43579 0.41378,0.93675 l 0.45069,0.91082 1.12571,-0.28968 c 0.98647,-0.25384 1.33896,-0.28355 2.84993,-0.2402 1.58283,0.0454 1.827,0.0849 2.97755,0.48209 2.87127,0.99108 4.93371,2.83811 6.1868,5.54059 2.74739,5.92522 -0.57998,12.89158 -6.93047,14.51 -1.10856,0.28252 -2.90512,0.40192 -3.89653,0.25897 z m 3.75635,-2.34971 c 1.35167,-0.41954 2.35949,-1.04415 3.45928,-2.14393 0.59164,-0.59165 1.1748,-1.32115 1.43622,-1.79664 2.52774,-4.59764 0.32951,-10.28798 -4.64918,-12.03491 -1.41721,-0.49727 -4.44413,-0.52298 -5.21861,-0.0443 -0.0955,0.059 0.14188,0.68079 0.74186,1.94278 l 0.88235,1.85596 1.01,0.053 c 0.77447,0.0406 1.16945,0.13103 1.69381,0.38757 2.18409,1.06858 2.91871,3.92592 1.52813,5.94378 -1.5836,2.29796 -4.96753,2.32062 -6.64221,0.0445 -1.01383,-1.37793 -0.96889,-3.46094 0.10502,-4.86784 0.23049,-0.30196 0.41908,-0.57486 0.41908,-0.60643 0,-0.18375 -1.78105,-3.75838 -1.8726,-3.75838 -0.061,0 -0.5967,0.48493 -1.1904,1.07764 -1.74998,1.74701 -2.52327,3.58195 -2.50685,5.94851 0.01,1.42501 0.25219,2.44032 0.895,3.75025 1.09542,2.23227 3.23107,3.87097 5.78328,4.43755 1.10407,0.2451 3.00808,0.15784 4.12582,-0.18909 z m -17.68211,-6.09129 c 0.4299,-0.22231 0.50145,-0.40013 0.50145,-1.24622 v -0.6673 h -3.12217 c -3.22061,0 -3.79543,-0.0711 -4.02364,-0.49749 -0.21096,-0.39418 -0.1415,-1.04644 0.13845,-1.30001 0.23807,-0.21564 0.53904,-0.2396 3.72115,-0.2962 l 3.46214,-0.0616 0.21488,-0.92369 c 0.11819,-0.50803 0.21716,-0.96177 0.21993,-1.00831 0.003,-0.0465 -2.17024,-0.10197 -4.82893,-0.12316 -4.59841,-0.0367 -4.86106,-0.0511 -5.38958,-0.29571 -0.71069,-0.32896 -1.32538,-0.94545 -1.64563,-1.65041 -0.37917,-0.83467 -0.36153,-2.81636 0.0319,-3.57999 0.41359,-0.80284 0.96315,-1.3165 1.7058,-1.59436 0.63017,-0.23578 0.96206,-0.24602 7.9736,-0.24602 4.2119,0 7.34518,-0.0471 7.38469,-0.11103 0.0377,-0.0611 0.3874,-0.31947 0.77701,-0.57422 0.38962,-0.25475 0.72462,-0.47504 0.74446,-0.48952 0.0198,-0.0145 -0.0589,-0.22545 -0.17495,-0.46884 l -0.21102,-0.44251 -9.00039,-0.0346 -9.00038,-0.0346 -0.56798,-0.29338 -0.56798,-0.29338 -0.3966,0.29338 -0.3966,0.29338 -4.39283,0.037 -4.39283,0.037 0.97273,0.48911 c 2.75381,1.38468 4.94185,3.49013 6.40707,6.16525 1.11903,2.04307 1.64156,4.13884 1.75393,7.03467 l 0.08,2.06291 h 5.83694 c 4.88193,0 5.89395,-0.0295 6.18537,-0.18018 z m 16.09072,-0.0534 c 1.26208,-0.57321 1.64147,-2.1657 0.75617,-3.17401 -0.64716,-0.73707 -1.68954,-1.07175 -1.68954,-0.54246 0,0.40483 -0.60635,0.78082 -1.14367,0.70916 -0.64943,-0.0866 -0.87577,0.26459 -0.8046,1.24846 0.0631,0.87237 0.38367,1.37015 1.11575,1.73252 0.64209,0.31783 1.10876,0.32479 1.76589,0.0263 z m -14.05067,-8.38478 c 0.0425,-0.13394 0.48544,-0.85442 0.98429,-1.60106 l 0.907,-1.35754 h -6.0336 c -4.08653,0 -6.11384,0.0429 -6.28225,0.13307 -0.51108,0.27352 -0.72851,1.29846 -0.47165,2.22322 0.23131,0.83274 0.28091,0.83987 5.87007,0.84304 4.82306,0.003 4.95081,-0.003 5.02614,-0.24073 z M 140.46233,99.59473 v -1.04925 l -8.79689,0.0332 c -8.6665,0.0327 -8.80193,0.0369 -9.13694,0.28712 -0.5021,0.37494 -0.78344,0.80292 -0.86723,1.31923 l -0.0745,0.45896 h 9.43777 9.43777 z m 19.33594,0.98672 c 0,-0.0344 -0.69411,-1.44987 -1.54245,-3.14552 l -1.54245,-3.083 -5.26208,0.0358 -5.26208,0.0358 -0.70423,0.33007 c -0.38732,0.18154 -0.98359,0.59138 -1.32503,0.91076 -1.32105,1.23569 -1.95177,3.56016 -1.20888,4.45528 0.41868,0.50448 0.57416,0.51357 8.87266,0.51859 4.386,0.003 7.97454,-0.0233 7.97454,-0.0577 z m 3.81792,-6.21857 v -3.07897 l -0.27711,10e-4 c -0.61216,0.003 -1.84108,0.47577 -2.65938,1.02319 -0.58147,0.38899 -1.25091,1.32747 -1.25091,1.75362 0,0.14672 0.16356,0.62747 0.36346,1.06835 0.30474,0.67208 0.47331,0.87451 1.04325,1.25282 0.71361,0.47367 1.40308,0.76186 2.22648,0.93065 0.27095,0.0555 0.50649,0.10706 0.52342,0.11448 0.0169,0.007 0.0308,-1.37204 0.0308,-3.06548 z"/></svg>
